%TF.GenerationSoftware,KiCad,Pcbnew,9.0.4*%
%TF.CreationDate,2025-12-21T10:21:05+05:30*%
%TF.ProjectId,RideOnV2Schematic,52696465-4f6e-4563-9253-6368656d6174,rev?*%
%TF.SameCoordinates,Original*%
%TF.FileFunction,Soldermask,Top*%
%TF.FilePolarity,Negative*%
%FSLAX46Y46*%
G04 Gerber Fmt 4.6, Leading zero omitted, Abs format (unit mm)*
G04 Created by KiCad (PCBNEW 9.0.4) date 2025-12-21 10:21:05*
%MOMM*%
%LPD*%
G01*
G04 APERTURE LIST*
G04 Aperture macros list*
%AMRoundRect*
0 Rectangle with rounded corners*
0 $1 Rounding radius*
0 $2 $3 $4 $5 $6 $7 $8 $9 X,Y pos of 4 corners*
0 Add a 4 corners polygon primitive as box body*
4,1,4,$2,$3,$4,$5,$6,$7,$8,$9,$2,$3,0*
0 Add four circle primitives for the rounded corners*
1,1,$1+$1,$2,$3*
1,1,$1+$1,$4,$5*
1,1,$1+$1,$6,$7*
1,1,$1+$1,$8,$9*
0 Add four rect primitives between the rounded corners*
20,1,$1+$1,$2,$3,$4,$5,0*
20,1,$1+$1,$4,$5,$6,$7,0*
20,1,$1+$1,$6,$7,$8,$9,0*
20,1,$1+$1,$8,$9,$2,$3,0*%
G04 Aperture macros list end*
%ADD10RoundRect,0.200000X-0.275000X0.200000X-0.275000X-0.200000X0.275000X-0.200000X0.275000X0.200000X0*%
%ADD11RoundRect,0.200000X0.200000X0.275000X-0.200000X0.275000X-0.200000X-0.275000X0.200000X-0.275000X0*%
%ADD12RoundRect,0.200000X-0.200000X-0.275000X0.200000X-0.275000X0.200000X0.275000X-0.200000X0.275000X0*%
%ADD13RoundRect,0.200000X0.275000X-0.200000X0.275000X0.200000X-0.275000X0.200000X-0.275000X-0.200000X0*%
%ADD14C,2.200000*%
%ADD15C,1.734000*%
%ADD16RoundRect,0.250000X0.250000X0.475000X-0.250000X0.475000X-0.250000X-0.475000X0.250000X-0.475000X0*%
%ADD17R,1.700000X1.700000*%
%ADD18C,1.700000*%
%ADD19RoundRect,0.225000X0.225000X0.375000X-0.225000X0.375000X-0.225000X-0.375000X0.225000X-0.375000X0*%
%ADD20RoundRect,0.250001X1.099999X1.099999X-1.099999X1.099999X-1.099999X-1.099999X1.099999X-1.099999X0*%
%ADD21C,2.700000*%
%ADD22RoundRect,0.250000X0.450000X-0.262500X0.450000X0.262500X-0.450000X0.262500X-0.450000X-0.262500X0*%
%ADD23RoundRect,0.250000X1.950000X1.000000X-1.950000X1.000000X-1.950000X-1.000000X1.950000X-1.000000X0*%
%ADD24RoundRect,0.100000X-0.637500X-0.100000X0.637500X-0.100000X0.637500X0.100000X-0.637500X0.100000X0*%
%ADD25C,2.500000*%
%ADD26C,5.800000*%
%ADD27O,0.600000X2.300000*%
%ADD28RoundRect,0.250000X1.000000X0.650000X-1.000000X0.650000X-1.000000X-0.650000X1.000000X-0.650000X0*%
%ADD29RoundRect,0.250001X-1.099999X1.099999X-1.099999X-1.099999X1.099999X-1.099999X1.099999X1.099999X0*%
G04 APERTURE END LIST*
D10*
%TO.C,R9*%
X169500000Y-56175000D03*
X169500000Y-57825000D03*
%TD*%
D11*
%TO.C,R7*%
X175125000Y-73800000D03*
X173475000Y-73800000D03*
%TD*%
D12*
%TO.C,R31*%
X173500000Y-89200000D03*
X175150000Y-89200000D03*
%TD*%
D13*
%TO.C,R12*%
X172300000Y-41325000D03*
X172300000Y-39675000D03*
%TD*%
D14*
%TO.C,U6*%
X91350000Y-38905000D03*
X107350000Y-52405000D03*
D15*
X90500000Y-42420000D03*
X90500000Y-44960000D03*
X90500000Y-47500000D03*
X90500000Y-50040000D03*
X90500000Y-52580000D03*
%TD*%
D16*
%TO.C,C13*%
X168382500Y-99695000D03*
X166482500Y-99695000D03*
%TD*%
D13*
%TO.C,R14*%
X176900000Y-41325000D03*
X176900000Y-39675000D03*
%TD*%
D17*
%TO.C,J1*%
X192540000Y-53600000D03*
D18*
X190000000Y-53600000D03*
X192540000Y-51060000D03*
X190000000Y-51060000D03*
X192540000Y-48520000D03*
X190000000Y-48520000D03*
X192540000Y-45980000D03*
X190000000Y-45980000D03*
%TD*%
D10*
%TO.C,R15*%
X174700000Y-56175000D03*
X174700000Y-57825000D03*
%TD*%
D16*
%TO.C,C14*%
X168382500Y-97595000D03*
X166482500Y-97595000D03*
%TD*%
%TO.C,C7*%
X178400000Y-56600000D03*
X176500000Y-56600000D03*
%TD*%
%TO.C,C12*%
X168382500Y-101795000D03*
X166482500Y-101795000D03*
%TD*%
D12*
%TO.C,R2*%
X173450000Y-67400000D03*
X175100000Y-67400000D03*
%TD*%
D11*
%TO.C,R26*%
X175150000Y-84700000D03*
X173500000Y-84700000D03*
%TD*%
D10*
%TO.C,R17*%
X171100000Y-56175000D03*
X171100000Y-57825000D03*
%TD*%
D19*
%TO.C,D7*%
X171975000Y-90300000D03*
X168675000Y-90300000D03*
%TD*%
D20*
%TO.C,J5*%
X179920000Y-112000000D03*
D21*
X175960000Y-112000000D03*
X172000000Y-112000000D03*
X168040000Y-112000000D03*
%TD*%
D10*
%TO.C,R10*%
X166400000Y-56175000D03*
X166400000Y-57825000D03*
%TD*%
D12*
%TO.C,R6*%
X173500000Y-75400000D03*
X175150000Y-75400000D03*
%TD*%
%TO.C,R27*%
X173500000Y-83100000D03*
X175150000Y-83100000D03*
%TD*%
D22*
%TO.C,R32*%
X85000000Y-56912500D03*
X85000000Y-55087500D03*
%TD*%
D19*
%TO.C,D6*%
X171975000Y-87300000D03*
X168675000Y-87300000D03*
%TD*%
D11*
%TO.C,R8*%
X175150000Y-78600000D03*
X173500000Y-78600000D03*
%TD*%
D12*
%TO.C,R22*%
X173475000Y-64200000D03*
X175125000Y-64200000D03*
%TD*%
D23*
%TO.C,C17*%
X92300000Y-74000000D03*
X84900000Y-74000000D03*
%TD*%
D24*
%TO.C,U2*%
X170500000Y-97550000D03*
X170500000Y-98200000D03*
X170500000Y-98850000D03*
X170500000Y-99500000D03*
X170500000Y-100150000D03*
X170500000Y-100800000D03*
X170500000Y-101450000D03*
X170500000Y-102100000D03*
X176225000Y-102100000D03*
X176225000Y-101450000D03*
X176225000Y-100800000D03*
X176225000Y-100150000D03*
X176225000Y-99500000D03*
X176225000Y-98850000D03*
X176225000Y-98200000D03*
X176225000Y-97550000D03*
%TD*%
D17*
%TO.C,J9*%
X129200000Y-40790000D03*
D18*
X129200000Y-43330000D03*
X129200000Y-45870000D03*
X129200000Y-48410000D03*
X129200000Y-50950000D03*
X129200000Y-53490000D03*
X129200000Y-56030000D03*
X129200000Y-58570000D03*
X129200000Y-61110000D03*
X129200000Y-63650000D03*
X129200000Y-66190000D03*
X129200000Y-68730000D03*
X129200000Y-71270000D03*
X129200000Y-73810000D03*
X129200000Y-76350000D03*
X129200000Y-78890000D03*
X129200000Y-81430000D03*
X129200000Y-83970000D03*
X129200000Y-86510000D03*
X129200000Y-89050000D03*
X129200000Y-91590000D03*
X129200000Y-94130000D03*
X129200000Y-96670000D03*
X129200000Y-99210000D03*
%TD*%
D11*
%TO.C,R28*%
X175150000Y-87700000D03*
X173500000Y-87700000D03*
%TD*%
D19*
%TO.C,D4*%
X171975000Y-81200000D03*
X168675000Y-81200000D03*
%TD*%
D25*
%TO.C,F1_30AMP1*%
X104300000Y-75360000D03*
X100900000Y-75360000D03*
X104300000Y-88840000D03*
X100900000Y-88840000D03*
%TD*%
D12*
%TO.C,R21*%
X173450000Y-65800000D03*
X175100000Y-65800000D03*
%TD*%
D26*
%TO.C,J15*%
X84800000Y-63000000D03*
X92000000Y-63000000D03*
%TD*%
D17*
%TO.C,J2*%
X192540000Y-65620000D03*
D18*
X190000000Y-65620000D03*
X192540000Y-63080000D03*
X190000000Y-63080000D03*
X192540000Y-60540000D03*
X190000000Y-60540000D03*
X192540000Y-58000000D03*
X190000000Y-58000000D03*
%TD*%
D10*
%TO.C,R18*%
X168000000Y-56175000D03*
X168000000Y-57825000D03*
%TD*%
D13*
%TO.C,R20*%
X170700000Y-41300000D03*
X170700000Y-39650000D03*
%TD*%
D12*
%TO.C,R1*%
X173475000Y-69000000D03*
X175125000Y-69000000D03*
%TD*%
D20*
%TO.C,J11*%
X136920000Y-112000000D03*
D21*
X132960000Y-112000000D03*
X129000000Y-112000000D03*
%TD*%
D27*
%TO.C,U1*%
X178110000Y-43900000D03*
X176840000Y-43900000D03*
X175570000Y-43900000D03*
X174300000Y-43900000D03*
X173030000Y-43900000D03*
X171770000Y-43900000D03*
X170490000Y-43900000D03*
X169220000Y-43900000D03*
X167950000Y-43900000D03*
X166680000Y-43900000D03*
X166680000Y-53300000D03*
X167950000Y-53300000D03*
X169220000Y-53300000D03*
X170490000Y-53300000D03*
X171770000Y-53300000D03*
X173030000Y-53300000D03*
X174300000Y-53300000D03*
X175570000Y-53300000D03*
X176840000Y-53300000D03*
X178110000Y-53300000D03*
%TD*%
D28*
%TO.C,D1*%
X90500000Y-90500000D03*
X86500000Y-90500000D03*
%TD*%
D13*
%TO.C,R13*%
X174400000Y-41300000D03*
X174400000Y-39650000D03*
%TD*%
D19*
%TO.C,D2*%
X171975000Y-75000000D03*
X168675000Y-75000000D03*
%TD*%
D17*
%TO.C,J10*%
X192580000Y-77040000D03*
D18*
X190040000Y-77040000D03*
X192580000Y-74500000D03*
X190040000Y-74500000D03*
X192580000Y-71960000D03*
X190040000Y-71960000D03*
X192580000Y-69420000D03*
X190040000Y-69420000D03*
%TD*%
D17*
%TO.C,J4*%
X158930000Y-97590000D03*
D18*
X158930000Y-95050000D03*
X158930000Y-92510000D03*
X158930000Y-89970000D03*
X158930000Y-87430000D03*
X158930000Y-84890000D03*
X158930000Y-82350000D03*
X158930000Y-79810000D03*
X158930000Y-77270000D03*
X158930000Y-74730000D03*
X158930000Y-72190000D03*
X158930000Y-69650000D03*
X158930000Y-67110000D03*
X158930000Y-64570000D03*
X158930000Y-62030000D03*
X158930000Y-59490000D03*
X158930000Y-56950000D03*
X158930000Y-54410000D03*
X158930000Y-51870000D03*
X158930000Y-49330000D03*
X158930000Y-46790000D03*
X158930000Y-44250000D03*
%TD*%
D11*
%TO.C,R24*%
X175150000Y-81600000D03*
X173500000Y-81600000D03*
%TD*%
D13*
%TO.C,R19*%
X167600000Y-41325000D03*
X167600000Y-39675000D03*
%TD*%
D12*
%TO.C,R4*%
X173475000Y-70600000D03*
X175125000Y-70600000D03*
%TD*%
D19*
%TO.C,D5*%
X171975000Y-84300000D03*
X168675000Y-84300000D03*
%TD*%
D13*
%TO.C,R11*%
X169200000Y-41300000D03*
X169200000Y-39650000D03*
%TD*%
D20*
%TO.C,J12*%
X149920000Y-112000000D03*
D21*
X145960000Y-112000000D03*
X142000000Y-112000000D03*
%TD*%
D19*
%TO.C,D3*%
X171975000Y-78200000D03*
X168675000Y-78200000D03*
%TD*%
D17*
%TO.C,J8*%
X136070000Y-97590000D03*
D18*
X136070000Y-95050000D03*
X136070000Y-92510000D03*
X136070000Y-89970000D03*
X136070000Y-87430000D03*
X136070000Y-84890000D03*
X136070000Y-82350000D03*
X136070000Y-79810000D03*
X136070000Y-77270000D03*
X136070000Y-74730000D03*
X136070000Y-72190000D03*
X136070000Y-69650000D03*
X136070000Y-67110000D03*
X136070000Y-64570000D03*
X136070000Y-62030000D03*
X136070000Y-59490000D03*
X136070000Y-56950000D03*
X136070000Y-54410000D03*
X136070000Y-51870000D03*
X136070000Y-49330000D03*
X136070000Y-46790000D03*
X136070000Y-44250000D03*
%TD*%
D20*
%TO.C,J13*%
X162920000Y-112000000D03*
D21*
X158960000Y-112000000D03*
X155000000Y-112000000D03*
%TD*%
D16*
%TO.C,C8*%
X178400000Y-58700000D03*
X176500000Y-58700000D03*
%TD*%
D12*
%TO.C,R3*%
X173475000Y-72200000D03*
X175125000Y-72200000D03*
%TD*%
D16*
%TO.C,C9*%
X178400000Y-60800000D03*
X176500000Y-60800000D03*
%TD*%
D26*
%TO.C,J3*%
X84800000Y-102000000D03*
X92000000Y-102000000D03*
%TD*%
D10*
%TO.C,R16*%
X173100000Y-56175000D03*
X173100000Y-57825000D03*
%TD*%
D12*
%TO.C,R23*%
X173500000Y-77000000D03*
X175150000Y-77000000D03*
%TD*%
%TO.C,R29*%
X173500000Y-86200000D03*
X175150000Y-86200000D03*
%TD*%
D11*
%TO.C,R30*%
X175150000Y-90700000D03*
X173500000Y-90700000D03*
%TD*%
D20*
%TO.C,J16*%
X124000000Y-112000000D03*
D21*
X120040000Y-112000000D03*
X116080000Y-112000000D03*
%TD*%
D17*
%TO.C,J6*%
X113980000Y-40790000D03*
D18*
X113980000Y-43330000D03*
X113980000Y-45870000D03*
X113980000Y-48410000D03*
X113980000Y-50950000D03*
X113980000Y-53490000D03*
X113980000Y-56030000D03*
X113980000Y-58570000D03*
X113980000Y-61110000D03*
X113980000Y-63650000D03*
X113980000Y-66190000D03*
X113980000Y-68730000D03*
X113980000Y-71270000D03*
X113980000Y-73810000D03*
X113980000Y-76350000D03*
X113980000Y-78890000D03*
X113980000Y-81430000D03*
X113980000Y-83970000D03*
X113980000Y-86510000D03*
X113980000Y-89050000D03*
X113980000Y-91590000D03*
X113980000Y-94130000D03*
X113980000Y-96670000D03*
X113980000Y-99210000D03*
%TD*%
D12*
%TO.C,R25*%
X173500000Y-80100000D03*
X175150000Y-80100000D03*
%TD*%
D29*
%TO.C,J7*%
X190550000Y-87302500D03*
D21*
X190550000Y-91262500D03*
X190550000Y-95222500D03*
X190550000Y-99182500D03*
X190550000Y-103142500D03*
%TD*%
M02*
