M48
; DRILL file {KiCad 9.0.4} date 2025-12-21T10:21:05+0530
; FORMAT={-:-/ absolute / inch / decimal}
; #@! TF.CreationDate,2025-12-21T10:21:05+05:30
; #@! TF.GenerationSoftware,Kicad,Pcbnew,9.0.4
; #@! TF.FileFunction,Plated,1,2,PTH
FMAT,2
INCH
; #@! TA.AperFunction,Plated,PTH,ViaDrill
T1C0.0118
; #@! TA.AperFunction,Plated,PTH,ComponentDrill
T2C0.0394
; #@! TA.AperFunction,Plated,PTH,ComponentDrill
T3C0.0402
; #@! TA.AperFunction,Plated,PTH,ComponentDrill
T4C0.0669
; #@! TA.AperFunction,Plated,PTH,ComponentDrill
T5C0.0709
; #@! TA.AperFunction,Plated,PTH,ComponentDrill
T6C0.1732
%
G90
G05
T1
X4.9263Y-2.5079
X4.9882Y-4.5118
X5.0079Y-3.937
X5.0748Y-3.9793
X5.4409Y-2.5
X5.4409Y-3.6575
X5.4646Y-2.5906
X5.4685Y-3.626
X5.5807Y-3.6909
X5.626Y-3.6929
X5.6299Y-2.0
X5.6299Y-4.3046
X6.1614Y-2.6969
X6.3189Y-2.7795
X6.3218Y-3.9608
X6.3473Y-3.983
X6.3493Y-3.5276
X6.3504Y-2.6732
X6.3543Y-2.8622
X6.3543Y-3.0157
X6.3543Y-3.189
X6.3583Y-3.374
X6.3719Y-3.4882
X6.3851Y-4.0009
X6.4213Y-2.7165
X6.422Y-3.9989
X6.4467Y-4.0193
X6.4472Y-2.6614
X6.4719Y-4.0383
X6.4843Y-1.8937
X6.4989Y-4.0551
X6.5012Y-4.0905
X6.5276Y-2.5906
X6.5386Y-4.1075
X6.5551Y-2.5276
X6.5619Y-2.1732
X6.5803Y-4.1088
X6.5866Y-2.0039
X6.605Y-4.1336
X6.6142Y-1.9173
X6.6142Y-2.315
X6.6297Y-4.1554
X6.6367Y-1.8465
X6.6496Y-2.8504
X6.6543Y-4.18
X6.6614Y-1.5197
X6.6614Y-1.815
X6.6811Y-2.9331
X6.6829Y-4.1969
X6.685Y-3.0591
X6.6929Y-2.315
X6.7076Y-4.2194
X6.7126Y-3.1969
X6.7205Y-2.9567
X6.7205Y-3.0827
X6.7323Y-3.3189
X6.7323Y-4.2441
X6.7362Y-1.9339
X6.7362Y-2.311
X6.7717Y-4.0197
X6.8268Y-1.563
X6.8268Y-3.7242
X6.8268Y-3.9961
X6.8543Y-3.9409
X6.8543Y-4.252
X6.8622Y-1.8031
X6.8622Y-3.7242
X6.8858Y-3.816
X6.9173Y-1.563
X6.9469Y-2.1772
X6.9764Y-2.4449
X7.1063Y-2.4961
X7.1141Y-2.7953
X7.1378Y-2.4724
X7.1417Y-2.8188
X7.1654Y-1.8346
X7.1654Y-2.5276
X7.185Y-2.5906
X7.1929Y-1.8543
X7.2008Y-2.6535
X7.2087Y-3.8307
X7.2127Y-2.4105
X7.2323Y-1.5
X7.2323Y-2.3858
X7.248Y-2.9567
X7.2597Y-2.4331
X7.2598Y-1.4724
X7.2598Y-2.5315
X7.2598Y-3.0197
X7.2598Y-3.3898
X7.2677Y-3.4921
X7.2717Y-3.1457
X7.2795Y-3.2559
X7.2835Y-2.4843
X7.3071Y-2.0591
X7.3308Y-2.0118
X7.3545Y-2.2402
X7.3545Y-2.7094
X7.3545Y-2.9803
X7.3782Y-2.9331
X7.4094Y-2.311
T2
X4.4874Y-1.6059
X4.4874Y-1.7059
X4.4874Y-1.8059
X4.4874Y-1.9059
X4.4874Y-2.0059
X4.4874Y-2.1059
X4.4874Y-2.2059
X4.4874Y-2.3059
X4.4874Y-2.4059
X4.4874Y-2.5059
X4.4874Y-2.6059
X4.4874Y-2.7059
X4.4874Y-2.8059
X4.4874Y-2.9059
X4.4874Y-3.0059
X4.4874Y-3.1059
X4.4874Y-3.2059
X4.4874Y-3.3059
X4.4874Y-3.4059
X4.4874Y-3.5059
X4.4874Y-3.6059
X4.4874Y-3.7059
X4.4874Y-3.8059
X4.4874Y-3.9059
X5.0866Y-1.6059
X5.0866Y-1.7059
X5.0866Y-1.8059
X5.0866Y-1.9059
X5.0866Y-2.0059
X5.0866Y-2.1059
X5.0866Y-2.2059
X5.0866Y-2.3059
X5.0866Y-2.4059
X5.0866Y-2.5059
X5.0866Y-2.6059
X5.0866Y-2.7059
X5.0866Y-2.8059
X5.0866Y-2.9059
X5.0866Y-3.0059
X5.0866Y-3.1059
X5.0866Y-3.2059
X5.0866Y-3.3059
X5.0866Y-3.4059
X5.0866Y-3.5059
X5.0866Y-3.6059
X5.0866Y-3.7059
X5.0866Y-3.8059
X5.0866Y-3.9059
X5.3571Y-1.7421
X5.3571Y-1.8421
X5.3571Y-1.9421
X5.3571Y-2.0421
X5.3571Y-2.1421
X5.3571Y-2.2421
X5.3571Y-2.3421
X5.3571Y-2.4421
X5.3571Y-2.5421
X5.3571Y-2.6421
X5.3571Y-2.7421
X5.3571Y-2.8421
X5.3571Y-2.9421
X5.3571Y-3.0421
X5.3571Y-3.1421
X5.3571Y-3.2421
X5.3571Y-3.3421
X5.3571Y-3.4421
X5.3571Y-3.5421
X5.3571Y-3.6421
X5.3571Y-3.7421
X5.3571Y-3.8421
X6.2571Y-1.7421
X6.2571Y-1.8421
X6.2571Y-1.9421
X6.2571Y-2.0421
X6.2571Y-2.1421
X6.2571Y-2.2421
X6.2571Y-2.3421
X6.2571Y-2.4421
X6.2571Y-2.5421
X6.2571Y-2.6421
X6.2571Y-2.7421
X6.2571Y-2.8421
X6.2571Y-2.9421
X6.2571Y-3.0421
X6.2571Y-3.1421
X6.2571Y-3.2421
X6.2571Y-3.3421
X6.2571Y-3.4421
X6.2571Y-3.5421
X6.2571Y-3.6421
X6.2571Y-3.7421
X6.2571Y-3.8421
X7.4803Y-1.8102
X7.4803Y-1.9102
X7.4803Y-2.0102
X7.4803Y-2.1102
X7.4803Y-2.2835
X7.4803Y-2.3835
X7.4803Y-2.4835
X7.4803Y-2.5835
X7.4819Y-2.7331
X7.4819Y-2.8331
X7.4819Y-2.9331
X7.4819Y-3.0331
X7.5803Y-1.8102
X7.5803Y-1.9102
X7.5803Y-2.0102
X7.5803Y-2.1102
X7.5803Y-2.2835
X7.5803Y-2.3835
X7.5803Y-2.4835
X7.5803Y-2.5835
X7.5819Y-2.7331
X7.5819Y-2.8331
X7.5819Y-2.9331
X7.5819Y-3.0331
T3
X3.563Y-1.6701
X3.563Y-1.7701
X3.563Y-1.8701
X3.563Y-1.9701
X3.563Y-2.0701
T4
X4.5701Y-4.4094
X4.726Y-4.4094
X4.8819Y-4.4094
X5.0787Y-4.4094
X5.2346Y-4.4094
X5.3906Y-4.4094
X5.5906Y-4.4094
X5.7465Y-4.4094
X5.9024Y-4.4094
X6.1024Y-4.4094
X6.2583Y-4.4094
X6.4142Y-4.4094
X6.6157Y-4.4094
X6.7717Y-4.4094
X6.9276Y-4.4094
X7.0835Y-4.4094
X7.502Y-3.4371
X7.502Y-3.593
X7.502Y-3.7489
X7.502Y-3.9048
X7.502Y-4.0607
T5
X3.9724Y-2.9669
X3.9724Y-3.4976
X4.1063Y-2.9669
X4.1063Y-3.4976
T6
X3.3386Y-2.4803
X3.3386Y-4.0157
X3.622Y-2.4803
X3.622Y-4.0157
M30
