%TF.GenerationSoftware,KiCad,Pcbnew,9.0.4*%
%TF.CreationDate,2025-12-21T10:21:05+05:30*%
%TF.ProjectId,RideOnV2Schematic,52696465-4f6e-4563-9253-6368656d6174,rev?*%
%TF.SameCoordinates,Original*%
%TF.FileFunction,Legend,Bot*%
%TF.FilePolarity,Positive*%
%FSLAX46Y46*%
G04 Gerber Fmt 4.6, Leading zero omitted, Abs format (unit mm)*
G04 Created by KiCad (PCBNEW 9.0.4) date 2025-12-21 10:21:05*
%MOMM*%
%LPD*%
G01*
G04 APERTURE LIST*
G04 Aperture macros list*
%AMRoundRect*
0 Rectangle with rounded corners*
0 $1 Rounding radius*
0 $2 $3 $4 $5 $6 $7 $8 $9 X,Y pos of 4 corners*
0 Add a 4 corners polygon primitive as box body*
4,1,4,$2,$3,$4,$5,$6,$7,$8,$9,$2,$3,0*
0 Add four circle primitives for the rounded corners*
1,1,$1+$1,$2,$3*
1,1,$1+$1,$4,$5*
1,1,$1+$1,$6,$7*
1,1,$1+$1,$8,$9*
0 Add four rect primitives between the rounded corners*
20,1,$1+$1,$2,$3,$4,$5,0*
20,1,$1+$1,$4,$5,$6,$7,0*
20,1,$1+$1,$6,$7,$8,$9,0*
20,1,$1+$1,$8,$9,$2,$3,0*%
G04 Aperture macros list end*
%ADD10C,2.200000*%
%ADD11C,1.734000*%
%ADD12R,1.700000X1.700000*%
%ADD13C,1.700000*%
%ADD14C,3.200000*%
%ADD15RoundRect,0.250001X1.099999X1.099999X-1.099999X1.099999X-1.099999X-1.099999X1.099999X-1.099999X0*%
%ADD16C,2.700000*%
%ADD17C,2.500000*%
%ADD18C,5.800000*%
%ADD19RoundRect,0.250001X-1.099999X1.099999X-1.099999X-1.099999X1.099999X-1.099999X1.099999X1.099999X0*%
G04 APERTURE END LIST*
%LPC*%
D10*
%TO.C,U6*%
X91350000Y-38905000D03*
X107350000Y-52405000D03*
D11*
X90500000Y-42420000D03*
X90500000Y-44960000D03*
X90500000Y-47500000D03*
X90500000Y-50040000D03*
X90500000Y-52580000D03*
%TD*%
D12*
%TO.C,J1*%
X192540000Y-53600000D03*
D13*
X190000000Y-53600000D03*
X192540000Y-51060000D03*
X190000000Y-51060000D03*
X192540000Y-48520000D03*
X190000000Y-48520000D03*
X192540000Y-45980000D03*
X190000000Y-45980000D03*
%TD*%
D14*
%TO.C,H1*%
X84000000Y-40000000D03*
%TD*%
%TO.C,H3*%
X191000000Y-40000000D03*
%TD*%
D15*
%TO.C,J5*%
X179920000Y-112000000D03*
D16*
X175960000Y-112000000D03*
X172000000Y-112000000D03*
X168040000Y-112000000D03*
%TD*%
D12*
%TO.C,J9*%
X129200000Y-40790000D03*
D13*
X129200000Y-43330000D03*
X129200000Y-45870000D03*
X129200000Y-48410000D03*
X129200000Y-50950000D03*
X129200000Y-53490000D03*
X129200000Y-56030000D03*
X129200000Y-58570000D03*
X129200000Y-61110000D03*
X129200000Y-63650000D03*
X129200000Y-66190000D03*
X129200000Y-68730000D03*
X129200000Y-71270000D03*
X129200000Y-73810000D03*
X129200000Y-76350000D03*
X129200000Y-78890000D03*
X129200000Y-81430000D03*
X129200000Y-83970000D03*
X129200000Y-86510000D03*
X129200000Y-89050000D03*
X129200000Y-91590000D03*
X129200000Y-94130000D03*
X129200000Y-96670000D03*
X129200000Y-99210000D03*
%TD*%
D17*
%TO.C,F1_30AMP1*%
X104300000Y-75360000D03*
X100900000Y-75360000D03*
X104300000Y-88840000D03*
X100900000Y-88840000D03*
%TD*%
D18*
%TO.C,J15*%
X84800000Y-63000000D03*
X92000000Y-63000000D03*
%TD*%
D12*
%TO.C,J2*%
X192540000Y-65620000D03*
D13*
X190000000Y-65620000D03*
X192540000Y-63080000D03*
X190000000Y-63080000D03*
X192540000Y-60540000D03*
X190000000Y-60540000D03*
X192540000Y-58000000D03*
X190000000Y-58000000D03*
%TD*%
D15*
%TO.C,J11*%
X136920000Y-112000000D03*
D16*
X132960000Y-112000000D03*
X129000000Y-112000000D03*
%TD*%
D12*
%TO.C,J10*%
X192580000Y-77040000D03*
D13*
X190040000Y-77040000D03*
X192580000Y-74500000D03*
X190040000Y-74500000D03*
X192580000Y-71960000D03*
X190040000Y-71960000D03*
X192580000Y-69420000D03*
X190040000Y-69420000D03*
%TD*%
D12*
%TO.C,J4*%
X158930000Y-97590000D03*
D13*
X158930000Y-95050000D03*
X158930000Y-92510000D03*
X158930000Y-89970000D03*
X158930000Y-87430000D03*
X158930000Y-84890000D03*
X158930000Y-82350000D03*
X158930000Y-79810000D03*
X158930000Y-77270000D03*
X158930000Y-74730000D03*
X158930000Y-72190000D03*
X158930000Y-69650000D03*
X158930000Y-67110000D03*
X158930000Y-64570000D03*
X158930000Y-62030000D03*
X158930000Y-59490000D03*
X158930000Y-56950000D03*
X158930000Y-54410000D03*
X158930000Y-51870000D03*
X158930000Y-49330000D03*
X158930000Y-46790000D03*
X158930000Y-44250000D03*
%TD*%
D14*
%TO.C,H2*%
X84000000Y-112000000D03*
%TD*%
D15*
%TO.C,J12*%
X149920000Y-112000000D03*
D16*
X145960000Y-112000000D03*
X142000000Y-112000000D03*
%TD*%
D12*
%TO.C,J8*%
X136070000Y-97590000D03*
D13*
X136070000Y-95050000D03*
X136070000Y-92510000D03*
X136070000Y-89970000D03*
X136070000Y-87430000D03*
X136070000Y-84890000D03*
X136070000Y-82350000D03*
X136070000Y-79810000D03*
X136070000Y-77270000D03*
X136070000Y-74730000D03*
X136070000Y-72190000D03*
X136070000Y-69650000D03*
X136070000Y-67110000D03*
X136070000Y-64570000D03*
X136070000Y-62030000D03*
X136070000Y-59490000D03*
X136070000Y-56950000D03*
X136070000Y-54410000D03*
X136070000Y-51870000D03*
X136070000Y-49330000D03*
X136070000Y-46790000D03*
X136070000Y-44250000D03*
%TD*%
D15*
%TO.C,J13*%
X162920000Y-112000000D03*
D16*
X158960000Y-112000000D03*
X155000000Y-112000000D03*
%TD*%
D18*
%TO.C,J3*%
X84800000Y-102000000D03*
X92000000Y-102000000D03*
%TD*%
D15*
%TO.C,J16*%
X124000000Y-112000000D03*
D16*
X120040000Y-112000000D03*
X116080000Y-112000000D03*
%TD*%
D12*
%TO.C,J6*%
X113980000Y-40790000D03*
D13*
X113980000Y-43330000D03*
X113980000Y-45870000D03*
X113980000Y-48410000D03*
X113980000Y-50950000D03*
X113980000Y-53490000D03*
X113980000Y-56030000D03*
X113980000Y-58570000D03*
X113980000Y-61110000D03*
X113980000Y-63650000D03*
X113980000Y-66190000D03*
X113980000Y-68730000D03*
X113980000Y-71270000D03*
X113980000Y-73810000D03*
X113980000Y-76350000D03*
X113980000Y-78890000D03*
X113980000Y-81430000D03*
X113980000Y-83970000D03*
X113980000Y-86510000D03*
X113980000Y-89050000D03*
X113980000Y-91590000D03*
X113980000Y-94130000D03*
X113980000Y-96670000D03*
X113980000Y-99210000D03*
%TD*%
D14*
%TO.C,H4*%
X191000000Y-112000000D03*
%TD*%
D19*
%TO.C,J7*%
X190550000Y-87302500D03*
D16*
X190550000Y-91262500D03*
X190550000Y-95222500D03*
X190550000Y-99182500D03*
X190550000Y-103142500D03*
%TD*%
%LPD*%
M02*
